<svg version="1.0" xmlns="http://www.w3.org/2000/svg" preserveAspectRatio="xMidYMid meet" viewBox="41 147.97 816 785.95">  <g transform="translate(0.000000,1080.000000) scale(0.100000,-0.100000)" fill="#000000" stroke="none"> <path d="M4900 9304 c-64 -22 -130 -53 -167 -80 -17 -13 -36 -24 -40 -24 -5 0 -44 -35 -87 -77 -77 -77 -139 -162 -190 -260 -16 -31 -36 -53 -49 -57 -12 -3 -75 -6 -140 -6 -145 0 -152 8 -76 77 99 89 109 101 109 128 0 39 -16 63 -60 85 -34 17 -59 20 -175 20 -90 0 -156 -5 -198 -16 -34 -8 -89 -22 -122 -31 -33 -8 -78 -22 -100 -30 -22 -8 -58 -22 -80 -30 -178 -66 -437 -202 -596 -313 -20 -14 -47 -32 -59 -40 -64 -43 -208 -161 -285 -233 -33 -31 -69 -57 -79 -57 -11 0 -49 19 -86 43 -93 60 -97 63 -175 100 -185 90 -234 102 -415 102 l-155 0 -100 -49 c-166 -82 -317 -209 -444 -376 -32 -41 -61 -82 -64 -90 -4 -8 -16 -28 -27 -45 -26 -40 -105 -203 -126 -257 -9 -23 -22 -79 -30 -123 -25 -144 8 -271 110 -429 46 -71 218 -244 309 -311 57 -41 65 -51 56 -67 -6 -11 -18 -22 -27 -25 -9 -4 -62 -41 -117 -82 -165 -124 -324 -294 -440 -471 -42 -64 -47 -73 -106 -190 -43 -86 -53 -114 -53 -157 0 -38 5 -58 19 -73 21 -23 23 -23 143 -4 23 4 42 3 42 -2 0 -5 -37 -54 -81 -109 -82 -102 -179 -254 -179 -280 0 -7 -4 -16 -9 -19 -4 -3 -18 -38 -30 -78 -12 -40 -28 -94 -36 -119 -8 -26 -15 -55 -15 -65 0 -11 -7 -52 -15 -91 -8 -40 -22 -106 -30 -145 -9 -43 -15 -125 -15 -199 0 -115 2 -130 24 -170 14 -24 36 -66 51 -94 14 -27 34 -63 45 -80 11 -16 24 -39 30 -50 36 -67 144 -227 244 -360 163 -218 375 -448 546 -594 41 -35 77 -67 80 -70 3 -4 37 -31 75 -61 39 -30 79 -63 90 -73 11 -10 49 -38 85 -62 36 -24 97 -66 136 -93 39 -26 77 -52 85 -55 8 -4 28 -16 44 -26 17 -11 50 -31 75 -44 25 -14 61 -34 80 -45 19 -11 96 -50 170 -86 226 -110 204 -92 211 -177 4 -41 7 -246 8 -456 1 -351 3 -385 19 -412 32 -52 67 -73 125 -73 65 -1 106 23 198 114 62 60 159 179 159 193 0 4 13 24 30 45 16 21 30 42 30 46 1 18 41 57 50 48 5 -5 5 -82 0 -189 -15 -286 -14 -317 13 -356 42 -62 121 -84 194 -54 50 21 161 105 214 162 24 27 70 84 102 128 31 44 84 117 117 163 33 45 65 82 71 82 8 0 10 -30 5 -108 -19 -313 -19 -381 -2 -407 43 -65 146 -95 204 -58 100 63 300 293 396 456 45 77 106 201 106 217 0 5 6 24 14 42 8 18 23 70 33 114 l18 81 95 17 c141 26 239 46 296 62 28 8 59 14 69 14 9 0 38 7 64 14 25 8 73 23 106 32 33 9 71 21 85 27 14 5 39 13 55 17 38 10 102 33 220 77 40 15 55 22 150 64 93 41 290 139 350 174 33 19 69 39 80 45 29 16 53 30 120 75 33 22 68 44 77 50 37 23 159 108 171 118 6 7 30 25 52 42 50 37 55 41 190 158 61 52 120 105 132 118 l22 24 -47 56 c-187 223 -256 319 -310 434 -18 39 -40 83 -48 98 -8 16 -14 35 -14 42 0 8 -6 29 -14 47 -35 82 -71 247 -57 261 6 6 33 5 73 -2 82 -14 201 -13 253 3 35 10 40 16 43 45 3 29 -20 94 -38 111 -14 12 -137 176 -143 190 -4 8 -16 29 -27 45 -24 38 -90 173 -90 185 0 4 -6 21 -14 37 -26 52 -81 276 -72 291 6 11 55 4 73 -10 7 -6 24 -7 37 -4 45 11 124 206 171 421 10 44 24 100 31 124 8 25 14 55 14 67 0 31 48 69 147 115 46 21 86 39 88 39 3 0 34 14 68 31 l63 30 179 -178 c120 -118 198 -188 234 -207 52 -28 54 -28 87 -12 19 8 34 23 34 32 0 9 6 37 14 63 28 90 46 218 47 336 0 66 4 162 7 214 7 93 7 93 46 127 40 34 167 124 196 137 8 4 27 15 42 25 32 21 212 133 236 147 110 65 162 111 227 200 88 121 115 203 115 351 0 133 -17 198 -87 329 -30 55 -155 168 -223 202 -129 63 -141 66 -325 66 -157 1 -173 -1 -212 -21 -49 -25 -73 -65 -66 -105 6 -31 -11 -57 -38 -57 -10 0 -33 -6 -51 -14 -51 -21 -99 -37 -138 -46 -19 -4 -48 -13 -65 -18 -16 -6 -55 -17 -85 -26 -30 -8 -80 -22 -110 -30 -53 -14 -114 -30 -245 -62 -33 -9 -83 -22 -111 -30 -28 -8 -60 -14 -71 -14 -11 0 -39 -6 -64 -14 -24 -7 -80 -21 -124 -30 -44 -10 -105 -24 -135 -31 -82 -20 -232 -43 -247 -38 -7 3 -33 33 -57 66 -25 34 -49 67 -53 72 -5 6 -24 30 -43 55 -46 60 -85 105 -199 229 -53 57 -100 112 -105 123 -10 19 -2 37 67 163 12 22 31 60 41 85 10 25 24 59 31 75 48 112 60 269 27 360 -35 102 -117 218 -224 321 -61 59 -167 143 -198 157 -8 4 -28 16 -45 26 -29 19 -91 50 -150 76 -105 46 -273 59 -365 29z m-990 -407 c0 -7 -4 -17 -9 -22 -22 -22 -72 -138 -77 -179 -6 -41 -4 -48 25 -76 31 -31 32 -32 109 -26 42 4 118 11 167 16 50 5 169 13 265 18 141 8 182 7 209 -4 18 -8 59 -14 90 -14 31 -1 67 -7 81 -15 14 -8 41 -14 61 -15 20 0 42 -7 49 -15 7 -8 25 -15 40 -15 15 0 33 -7 40 -15 7 -8 25 -15 40 -15 17 0 30 -7 34 -16 9 -25 -20 -64 -48 -64 -13 0 -29 -7 -36 -15 -7 -8 -21 -15 -31 -15 -11 0 -19 -4 -19 -8 0 -11 46 -32 69 -32 10 0 24 -7 31 -15 7 -8 21 -15 31 -15 11 0 19 -6 19 -14 0 -8 28 -31 63 -52 100 -61 285 -205 373 -290 127 -125 289 -298 340 -366 27 -35 51 -65 54 -68 3 -3 23 -29 44 -59 51 -72 44 -78 -107 -90 -64 -6 -122 -13 -127 -16 -12 -8 -449 -34 -565 -35 -44 0 -86 -4 -93 -8 -19 -13 -4 -39 31 -55 74 -35 152 -44 482 -57 222 -9 379 6 680 62 33 6 83 14 110 18 61 9 151 27 225 45 30 7 91 21 135 31 44 9 100 23 124 30 25 8 53 14 64 14 11 0 40 7 66 15 25 8 75 21 111 30 36 9 89 23 117 31 29 8 79 21 110 30 32 9 78 22 103 30 25 8 51 14 58 14 15 0 16 -76 2 -135 -15 -61 6 -176 48 -265 50 -103 149 -202 254 -253 42 -20 84 -37 92 -37 45 0 12 -45 -95 -128 -37 -29 -69 -52 -72 -52 -3 0 -34 -19 -69 -43 -35 -24 -70 -46 -78 -50 -8 -4 -49 -29 -90 -57 -41 -27 -88 -56 -105 -65 -16 -8 -66 -35 -110 -59 -148 -82 -395 -202 -540 -261 -49 -20 -101 -42 -115 -48 -31 -13 -87 -35 -120 -47 -14 -5 -70 -25 -125 -45 -55 -20 -122 -43 -150 -51 -27 -8 -63 -19 -80 -24 -16 -5 -61 -18 -100 -30 -38 -12 -89 -25 -113 -30 -23 -5 -51 -14 -61 -20 -11 -5 -30 -10 -42 -10 -12 0 -45 -6 -73 -14 -124 -35 -380 -83 -621 -116 -118 -17 -462 -39 -600 -40 -136 0 -460 24 -550 40 -169 31 -297 62 -353 86 -18 8 -39 14 -47 14 -13 0 -30 7 -120 45 -37 16 -173 83 -200 99 -130 75 -290 214 -349 303 -30 45 -28 63 8 63 13 0 43 7 66 15 23 8 55 15 70 15 39 0 97 26 110 49 16 31 12 70 -11 102 -19 27 -25 29 -84 29 -79 0 -223 -42 -266 -77 -8 -7 -20 -13 -25 -13 -14 0 -99 -91 -117 -125 -34 -66 -47 -118 -47 -188 0 -97 8 -107 50 -66 18 18 37 45 42 60 17 49 38 45 92 -13 70 -75 91 -126 77 -186 -11 -45 -18 -108 -41 -352 -9 -97 0 -266 16 -291 11 -18 99 -8 144 16 25 13 56 29 69 35 25 11 203 129 211 140 3 3 51 41 107 83 114 86 130 90 232 61 84 -23 151 -41 201 -52 103 -24 94 -12 135 -187 8 -38 23 -95 31 -125 9 -30 23 -80 31 -110 28 -100 52 -150 102 -211 13 -16 16 -16 53 3 45 24 147 124 191 188 17 25 79 117 139 206 l108 161 62 6 c35 4 136 10 225 13 l162 7 12 -29 c26 -63 154 -338 169 -364 5 -8 16 -29 25 -46 8 -16 36 -47 60 -67 37 -31 48 -36 64 -27 23 12 97 106 134 170 55 96 157 319 157 344 0 7 9 34 20 59 23 51 69 92 115 102 17 3 53 12 80 20 28 8 79 21 115 30 36 9 87 23 114 31 46 15 49 15 71 -6 12 -12 37 -49 56 -83 32 -62 32 -62 34 -217 2 -180 21 -286 80 -449 23 -63 92 -214 118 -256 43 -69 57 -96 57 -105 0 -13 -37 -13 -45 0 -13 21 -134 80 -164 80 -24 0 -36 -7 -52 -32 -21 -35 -21 -61 0 -193 6 -33 17 -100 25 -150 18 -117 43 -209 77 -290 4 -11 18 -45 31 -75 19 -48 132 -247 147 -260 4 -3 28 -38 55 -78 56 -85 59 -77 -54 -165 -36 -28 -67 -54 -70 -58 -5 -6 -63 -47 -155 -110 -27 -19 -52 -36 -55 -40 -3 -3 -23 -16 -45 -29 -22 -13 -42 -27 -45 -30 -7 -9 -109 -70 -116 -70 -4 0 -32 -15 -63 -34 -86 -52 -208 -112 -403 -200 -20 -9 -42 -16 -50 -16 -8 0 -18 -4 -24 -8 -5 -5 -38 -19 -74 -31 -36 -13 -72 -26 -80 -31 -9 -4 -31 -11 -50 -15 -19 -4 -39 -11 -45 -15 -5 -4 -26 -11 -45 -14 -19 -4 -44 -11 -55 -16 -58 -24 -313 -80 -485 -105 -73 -11 -98 -11 -107 -2 -6 7 -16 44 -22 82 -17 115 -57 283 -72 300 -5 5 -9 16 -9 25 0 8 -11 35 -25 60 -13 25 -36 69 -52 98 -34 66 -132 169 -198 209 -27 16 -73 37 -102 46 -56 19 -188 23 -198 7 -3 -5 -14 -10 -24 -10 -10 0 -47 -21 -82 -48 -85 -63 -115 -78 -131 -65 -7 6 -29 14 -48 18 -19 4 -41 12 -49 19 -8 6 -53 11 -110 11 -103 0 -128 -10 -206 -80 -62 -56 -72 -59 -118 -45 -23 8 -46 17 -51 22 -28 23 -236 -7 -236 -34 0 -5 -5 -8 -11 -8 -11 0 -85 -56 -119 -90 -8 -8 -33 -38 -55 -65 -22 -28 -42 -52 -45 -55 -3 -3 -20 -24 -39 -47 -33 -43 -55 -51 -89 -34 -9 5 -53 27 -97 48 -44 21 -81 41 -83 46 -2 4 -8 7 -14 7 -9 0 -319 182 -343 202 -5 5 -64 48 -130 97 -66 48 -136 102 -155 119 -19 18 -50 42 -67 55 -42 29 -377 367 -428 432 -22 28 -42 52 -45 55 -33 27 -310 428 -310 447 0 5 -19 38 -43 74 -23 35 -57 95 -76 132 l-33 68 5 127 c4 129 18 248 36 312 47 168 90 261 168 365 28 39 80 99 113 135 144 152 210 233 210 256 0 13 -7 39 -16 57 -14 30 -23 35 -62 41 -24 3 -82 6 -128 6 -46 0 -84 2 -84 5 0 5 92 158 99 165 3 3 17 21 31 40 37 53 67 86 170 190 136 136 205 189 290 225 25 10 52 26 61 36 9 10 35 28 58 40 43 22 76 56 87 91 5 16 -5 32 -45 70 -47 45 -51 52 -51 96 0 26 7 56 15 66 8 11 15 36 15 55 0 20 7 45 15 55 8 11 15 33 15 49 0 15 7 35 15 43 8 9 15 26 15 38 0 13 7 29 15 36 8 7 15 23 15 35 0 12 7 28 15 35 8 7 15 23 15 35 0 12 7 28 15 35 8 7 15 20 15 30 0 10 7 20 15 24 8 3 15 14 15 24 0 10 5 23 11 29 13 13 33 47 48 81 6 12 15 22 21 22 5 0 10 5 10 11 0 38 206 255 246 259 42 5 43 3 46 -102 l3 -103 162 163 c90 89 170 162 180 162 9 0 51 33 93 73 160 150 291 267 302 267 4 0 13 7 22 15 21 21 236 165 246 165 5 0 15 6 22 13 21 18 174 99 288 150 68 31 222 87 239 87 10 0 21 3 25 8 7 6 109 28 149 31 9 0 17 -5 17 -12z m4177 -1155 c117 -41 186 -111 226 -227 41 -120 -3 -288 -98 -367 -11 -9 -47 -32 -80 -49 -56 -31 -66 -33 -160 -33 -83 0 -108 4 -148 23 -140 65 -221 229 -192 388 14 76 31 114 72 158 39 42 108 95 124 95 8 0 23 7 33 15 29 22 158 20 223 -3z m-551 -1502 c-9 -172 -17 -250 -26 -250 -4 0 -43 41 -86 91 -43 51 -94 108 -111 128 -32 36 -32 36 -13 55 21 21 84 59 165 100 74 38 79 30 71 -124z m-1000 -392 c-4 -35 -13 -90 -21 -123 -8 -33 -17 -77 -20 -97 -3 -21 -9 -38 -14 -38 -26 0 -98 97 -141 189 l-20 44 21 23 c11 12 30 24 42 27 12 4 45 13 72 21 87 26 88 25 81 -46z m-3423 -7 c107 -58 127 -74 120 -98 -5 -18 -244 -203 -263 -203 -15 0 -12 135 5 205 8 33 14 76 15 96 0 63 8 63 123 0z m2337 -261 c0 -16 -7 -46 -16 -67 -9 -21 -22 -51 -29 -68 -33 -80 -65 -143 -79 -154 -14 -12 -27 7 -72 114 -60 143 -61 153 -9 172 22 8 67 19 100 23 107 13 105 13 105 -20z m-1180 -48 c40 -7 45 -10 43 -33 0 -14 -18 -53 -40 -88 -21 -35 -42 -71 -48 -80 -24 -39 -79 -111 -86 -111 -11 0 -39 66 -39 93 0 14 -5 38 -11 54 -13 33 -30 154 -23 165 6 10 141 9 204 0z m-212 -2259 c48 -23 112 -100 156 -189 21 -43 43 -87 47 -96 23 -47 58 -220 69 -344 13 -141 -7 -315 -46 -401 -8 -17 -14 -35 -14 -41 0 -40 -170 -299 -189 -288 -3 2 -8 62 -9 133 -2 120 -18 247 -44 353 -6 25 -14 63 -19 85 -16 79 -39 148 -56 167 -13 15 -28 18 -72 16 -63 -3 -54 7 -122 -143 -57 -126 -85 -181 -125 -250 -19 -33 -39 -69 -45 -80 -55 -108 -203 -305 -228 -305 -8 0 -11 69 -11 243 -1 172 -5 261 -15 307 -8 36 -14 79 -15 97 0 31 -12 66 -48 141 -27 57 -95 79 -139 44 -12 -9 -68 -109 -126 -222 -113 -224 -150 -289 -203 -359 -43 -56 -64 -70 -64 -42 0 11 -5 122 -10 248 -10 207 -17 268 -52 429 -15 74 8 130 88 209 89 87 124 114 165 125 50 14 65 7 131 -62 52 -54 60 -59 95 -56 33 3 43 11 83 63 25 33 69 83 97 112 46 46 58 53 93 53 26 0 60 -11 97 -32 32 -17 77 -42 101 -55 24 -13 58 -23 77 -23 29 0 40 8 87 68 76 96 90 110 118 115 37 7 111 -3 148 -20z"/> <path d="M5255 7791 c-108 -67 -120 -196 -26 -268 37 -28 51 -33 99 -33 99 0 152 54 152 154 0 50 -4 64 -31 97 -52 66 -135 87 -194 50z"/> <path d="M3085 7378 c-47 -9 -100 -28 -135 -49 -8 -5 -25 -13 -37 -19 -13 -5 -48 -33 -78 -63 -67 -65 -71 -93 -21 -143 37 -37 66 -43 86 -19 7 8 17 15 22 15 5 0 24 11 41 24 18 13 66 41 107 62 l75 38 150 0 c84 0 180 -6 218 -13 37 -7 70 -11 73 -8 20 19 -48 84 -121 115 -144 63 -264 82 -380 60z"/> </g> </svg>